<?xml version="1.0" encoding="utf-8"?>
<!-- Generator: Adobe Illustrator 24.0.0, SVG Export Plug-In . SVG Version: 6.00 Build 0)  -->
<svg version="1.1" id="Calque_1" focusable="false" xmlns="http://www.w3.org/2000/svg" xmlns:xlink="http://www.w3.org/1999/xlink"
	 x="0px" y="0px" viewBox="0 0 512 512" style="enable-background:new 0 0 512 512;" xml:space="preserve">
<style type="text/css">
	.st0{fill:#FFFFFF;}
</style>
<path class="st0" d="M256,8C119,8,8,119,8,256s111,248,248,248s248-111,248-248S393,8,256,8z M256,456c-110.5,0-200-89.5-200-200
	c0-110.5,89.5-200,200-200c110.5,0,200,89.5,200,200C456,366.5,366.5,456,256,456z M363.4,354.9c-9.6,9.7-45.5,41.4-104.1,41.4
	c-82.4,0-140.5-61.4-140.5-141.6c0-79.2,60.3-139.4,139.8-139.4c55.5,0,88.7,26.6,97.6,34.8c4.3,4,5.1,10.4,1.9,15.3l-18.2,28.1
	c-3.8,5.9-12,7.3-17.5,2.9c-8.6-6.8-31.8-22.5-61.7-22.5c-48.3,0-77.9,35.3-77.9,80.1c0,41.6,26.9,83.7,78.3,83.7
	c32.7,0,56.8-19,65.7-27.2c5.3-4.9,13.6-4,17.8,1.7l19.9,27.2C368,344.2,367.5,350.8,363.4,354.9L363.4,354.9z"/>
</svg>
