<svg id="Calque_1" data-name="Calque 1" xmlns="http://www.w3.org/2000/svg" xmlns:xlink="http://www.w3.org/1999/xlink" viewBox="0 0 355.04 355.04"><defs><style>.cls-1{fill:url(#Dégradé_sans_nom_28);}</style><linearGradient id="Dégradé_sans_nom_28" x1="12.71" y1="342.33" x2="342.33" y2="12.71" gradientUnits="userSpaceOnUse"><stop offset="0" stop-color="#f0e00b"/><stop offset="1" stop-color="#f39b06"/></linearGradient></defs><title>logo</title><rect class="cls-1" width="355.04" height="355.04" rx="43.38"/><path d="M437.15,442.73c-5.91,3.47-15.48,6.73-22.47,4.53-13.16-4.15-21.25-28.95-16.06-60.94A78.63,78.63,0,0,0,420.52,375c28.58-21.18,46-65.42,30.38-85-5.38-6.74-15-10.93-24.17-10.35-24.82,1.57-48.05,38.25-56.29,92.22a237.89,237.89,0,0,1-24.1,3c-7.19.54-13.95.71-20.21.65,1-5.85,2.42-14.58,3.7-25.24,2.09-17.31,3-26.1,1.38-33.71-.67-3.06-5.23-22.17-18.8-28.89-27.32-13.53-75,30.62-70.17,46.32.9,2.89,4,6.27,7.34,6.42,4.25.19,6-5.16,13.3-13.3,5-5.56,11.85-13.06,22.24-15.59,3.62-.88,7.47-1.83,10.35-.51,13.36,6.11.93,58.34-.44,64-1.69-.16-19.74-1.65-26.73,6.1a14.79,14.79,0,0,0-2.9,4.95c-1.09,3.53-.83,8.42,2.06,11.69,2.41,2.72,5.59,3.3,10.78,3.9,8,.94,12.38.23,12.38.23A229.14,229.14,0,0,1,284,433.15c-5.11,18.08-8.8,31.7-2.59,37.55,3.93,3.7,11.05,3.57,15.82,1.38,7.7-3.54,9.76-12.6,14.44-32.22,1.81-7.56,5.16-21.53,9.87-40.7a189.06,189.06,0,0,0,44.48-3.67c-1.93,40.66,16.07,71.9,39.22,77.37,4.57,1.08,14.07,2.27,27.28-4,2.21-1.12,34.18-17.63,31.91-36.47-.42-3.49-2.25-9-5.55-9.73C453.45,421.55,450.24,435,437.15,442.73ZM421,351.6a53.88,53.88,0,0,1-20.09,14.08c1.61-10.15,10.35-62.82,26.81-66.79a5.85,5.85,0,0,1,4.14.29C439.7,303.4,437,333.36,421,351.6Z" transform="translate(-175.72 -199.15)"/></svg>